<svg width="145" height="52" viewBox="0 0 145 52" fill="none" xmlns="http://www.w3.org/2000/svg">
<circle cx="25.7045" cy="25.7045" r="25.7045" fill="#EE0000"/>
<path d="M26.1155 34.2727H20.396V27.2173H13.6287V34.2727H7.90918V15.8181H13.6287V22.3478H20.396V15.8181H26.1155V34.2727Z" fill="white"/>
<path d="M43.5001 34.2727H29.1729V15.8181H43.5001V20.6877H34.8924V22.5138H43.3019V27.3833H34.8924V29.4031H43.5001V34.2727Z" fill="white"/>
<path d="M60.4219 33.8915H55V16.4915H64.5554C66.5774 16.4915 68.1521 17.0655 69.2794 18.2133C70.4246 19.3437 70.9972 20.7611 70.9972 22.4655C70.9972 24.1524 70.4246 25.5698 69.2794 26.7176C68.1521 27.8481 66.5774 28.4133 64.5554 28.4133H60.4219V33.8915ZM63.8575 23.822C64.3407 23.822 64.7343 23.7089 65.0385 23.4829C65.3427 23.2394 65.4948 22.9002 65.4948 22.4655C65.4948 22.0133 65.3427 21.6742 65.0385 21.4481C64.7343 21.2046 64.3407 21.0828 63.8575 21.0828H60.4219V23.822H63.8575Z" fill="#313131"/>
<path d="M77.9788 33.8915H72.7717V16.4915H78.1936V25.7785L84.4207 16.4915H90.0036V33.8915H84.5817V24.0307L77.9788 33.8915Z" fill="#313131"/>
<path d="M99.8274 34.2046C98.718 34.2046 97.6891 34.0568 96.7407 33.7611C95.8102 33.4481 95.0229 33.0307 94.3787 32.5089C93.7345 31.9872 93.1977 31.4568 92.7682 30.9176C92.3388 30.3611 91.9809 29.7611 91.6946 29.1176L96.3649 27.0307C96.5975 27.7437 97.0449 28.3437 97.707 28.8307C98.387 29.3176 99.1653 29.5611 100.042 29.5611C101.832 29.5611 103.057 28.8394 103.719 27.3959H97.5996V22.8046H103.612C102.932 21.5002 101.742 20.8481 100.042 20.8481C99.1653 20.8481 98.387 21.0915 97.707 21.5785C97.0449 22.0655 96.5975 22.6655 96.3649 23.3785L91.6946 21.2655C92.3388 19.8394 93.314 18.6394 94.6203 17.6655C95.9444 16.6915 97.6801 16.2046 99.8274 16.2046C102.673 16.2046 105.026 17.0394 106.887 18.7089C108.748 20.3785 109.678 22.5437 109.678 25.2046C109.678 27.8481 108.739 30.0133 106.86 31.7002C104.999 33.3698 102.655 34.2046 99.8274 34.2046Z" fill="#313131"/>
<path d="M109.893 34.2046V29.5611C110.716 29.5611 111.387 29.2394 111.906 28.5959C112.425 27.935 112.782 26.822 112.979 25.2568L114.08 16.4915H128.064V33.8915H122.642V21.0828H118.965L118.374 25.6481C118.16 27.3002 117.793 28.7089 117.274 29.8742C116.773 31.022 116.129 31.9002 115.341 32.5089C114.572 33.1176 113.749 33.5524 112.872 33.8133C111.995 34.0742 111.002 34.2046 109.893 34.2046Z" fill="#313131"/>
<path d="M140.222 33.8915H134.8V21.0828H129.996V16.4915H145V21.0828H140.222V33.8915Z" fill="#313131"/>
</svg>
